<svg xmlns="http://www.w3.org/2000/svg" width="1280" height="720" viewBox="0 0 1280 720" role="img" aria-labelledby="title desc">
  <title id="title">Metidos plugin administration demo screenshot</title>
  <desc id="desc">Generated feature screenshot showing fake plugin administration data, review-first approval state, declared permissions, access groups, settings, and reset controls with no private paths, usernames, hostnames, tokens, or real repository data.</desc>
  <defs>
    <linearGradient id="bg" x1="0" y1="0" x2="1" y2="1">
      <stop offset="0" stop-color="#0a0b0c"/>
      <stop offset="1" stop-color="#201d32"/>
    </linearGradient>
    <linearGradient id="accent" x1="0" y1="0" x2="1" y2="0">
      <stop offset="0" stop-color="#7e57ff"/>
      <stop offset="1" stop-color="#49c2ff"/>
    </linearGradient>
  </defs>
  <rect width="1280" height="720" fill="url(#bg)"/>
  <path d="M0 48h1280M0 96h1280M0 144h1280M0 192h1280M0 240h1280M0 288h1280M0 336h1280M0 384h1280M0 432h1280M0 480h1280M0 528h1280M0 576h1280M0 624h1280M0 672h1280M48 0v720M96 0v720M144 0v720M192 0v720M240 0v720M288 0v720M336 0v720M384 0v720M432 0v720M480 0v720M528 0v720M576 0v720M624 0v720M672 0v720M720 0v720M768 0v720M816 0v720M864 0v720M912 0v720M960 0v720M1008 0v720M1056 0v720M1104 0v720M1152 0v720M1200 0v720M1248 0v720" stroke="#242a34" stroke-width="1" opacity="0.5"/>
  <rect x="72" y="60" width="1136" height="600" rx="28" fill="#121417" stroke="#40464e" stroke-width="2"/>
  <rect x="72" y="60" width="1136" height="72" rx="28" fill="#1d2025"/>
  <rect x="72" y="104" width="1136" height="28" fill="#1d2025"/>
  <circle cx="110" cy="96" r="9" fill="#ff5f57"/>
  <circle cx="142" cy="96" r="9" fill="#ffbd2e"/>
  <circle cx="174" cy="96" r="9" fill="#27c93f"/>
  <text x="218" y="104" fill="#f2f4f8" font-family="Inter, ui-sans-serif, system-ui, sans-serif" font-size="22" font-weight="800">Metidos · Plugin Administration</text>
  <text x="900" y="104" fill="#a8afb9" font-family="Inter, ui-sans-serif, system-ui, sans-serif" font-size="15">Generated demo data only</text>

  <rect x="104" y="164" width="330" height="464" rx="18" fill="#0d0f12" stroke="#343a42"/>
  <text x="132" y="204" fill="#f2f4f8" font-family="Inter, ui-sans-serif, system-ui, sans-serif" font-size="18" font-weight="800">Local plugins</text>
  <text x="132" y="228" fill="#a8afb9" font-family="Inter, ui-sans-serif, system-ui, sans-serif" font-size="13">Review source changes before enabling tools.</text>

  <rect x="132" y="252" width="274" height="96" rx="14" fill="#1b2340" stroke="#7e57ff"/>
  <text x="154" y="282" fill="#ffffff" font-family="Inter, ui-sans-serif, system-ui, sans-serif" font-size="16" font-weight="800">demo-calendar-tools</text>
  <text x="154" y="306" fill="#a8afb9" font-family="Inter, ui-sans-serif, system-ui, sans-serif" font-size="13">Provider + thread tools</text>
  <rect x="154" y="322" width="88" height="18" rx="9" fill="#13291d"/>
  <text x="174" y="335" fill="#8df6a5" font-family="Inter, ui-sans-serif, system-ui, sans-serif" font-size="10" font-weight="800">approved</text>
  <rect x="254" y="322" width="112" height="18" rx="9" fill="#172338"/>
  <text x="274" y="335" fill="#9ed8ff" font-family="Inter, ui-sans-serif, system-ui, sans-serif" font-size="10" font-weight="800">2 access groups</text>

  <rect x="132" y="370" width="274" height="86" rx="14" fill="#15181d" stroke="#303740"/>
  <text x="154" y="400" fill="#f2f4f8" font-family="Inter, ui-sans-serif, system-ui, sans-serif" font-size="15" font-weight="700">demo-weather-helper</text>
  <text x="154" y="424" fill="#a8afb9" font-family="Inter, ui-sans-serif, system-ui, sans-serif" font-size="13">Network read permission</text>
  <rect x="154" y="438" width="92" height="18" rx="9" fill="#26220f"/>
  <text x="172" y="451" fill="#ffd97a" font-family="Inter, ui-sans-serif, system-ui, sans-serif" font-size="10" font-weight="800">needs review</text>

  <rect x="132" y="476" width="274" height="86" rx="14" fill="#15181d" stroke="#303740"/>
  <text x="154" y="506" fill="#f2f4f8" font-family="Inter, ui-sans-serif, system-ui, sans-serif" font-size="15" font-weight="700">demo-notes-export</text>
  <text x="154" y="530" fill="#a8afb9" font-family="Inter, ui-sans-serif, system-ui, sans-serif" font-size="13">Filesystem write permission</text>
  <rect x="154" y="544" width="78" height="18" rx="9" fill="#26181d"/>
  <text x="172" y="557" fill="#ffb4c3" font-family="Inter, ui-sans-serif, system-ui, sans-serif" font-size="10" font-weight="800">disabled</text>

  <rect x="462" y="164" width="710" height="464" rx="18" fill="#0d0f12" stroke="#343a42"/>
  <text x="494" y="205" fill="#f2f4f8" font-family="Inter, ui-sans-serif, system-ui, sans-serif" font-size="26" font-weight="800">demo-calendar-tools</text>
  <text x="494" y="234" fill="#a8afb9" font-family="Inter, ui-sans-serif, system-ui, sans-serif" font-size="15">Manifest reviewed · AGENTS.md present · Version 0.3.0-demo</text>
  <rect x="1016" y="190" width="112" height="34" rx="17" fill="#13291d" stroke="#27c93f"/>
  <text x="1038" y="212" fill="#8df6a5" font-family="Inter, ui-sans-serif, system-ui, sans-serif" font-size="13" font-weight="800">Approved</text>

  <text x="494" y="284" fill="#f2f4f8" font-family="Inter, ui-sans-serif, system-ui, sans-serif" font-size="18" font-weight="800">Declared permissions</text>
  <rect x="494" y="308" width="238" height="42" rx="14" fill="#15181d" stroke="#303740"/>
  <text x="520" y="335" fill="#c9d0da" font-family="Fira Code, ui-monospace, monospace" font-size="13">calendar:read:demo</text>
  <rect x="750" y="308" width="258" height="42" rx="14" fill="#15181d" stroke="#303740"/>
  <text x="776" y="335" fill="#c9d0da" font-family="Fira Code, ui-monospace, monospace" font-size="13">metidos:threads:tools</text>

  <text x="494" y="396" fill="#f2f4f8" font-family="Inter, ui-sans-serif, system-ui, sans-serif" font-size="18" font-weight="800">Access groups</text>
  <rect x="494" y="422" width="598" height="50" rx="14" fill="#101820" stroke="#49c2ff"/>
  <circle cx="522" cy="447" r="9" fill="#27c93f"/>
  <text x="548" y="450" fill="#f2f4f8" font-family="Inter, ui-sans-serif, system-ui, sans-serif" font-size="14" font-weight="800">Thread-visible tools · safe mode only</text>
  <text x="870" y="450" fill="#a8afb9" font-family="Inter, ui-sans-serif, system-ui, sans-serif" font-size="13">2 tools</text>
  <rect x="494" y="486" width="598" height="50" rx="14" fill="#15181d" stroke="#303740"/>
  <circle cx="522" cy="511" r="9" fill="#7e57ff"/>
  <text x="548" y="514" fill="#f2f4f8" font-family="Inter, ui-sans-serif, system-ui, sans-serif" font-size="14" font-weight="800">Provider adapter · operator configured</text>
  <text x="870" y="514" fill="#a8afb9" font-family="Inter, ui-sans-serif, system-ui, sans-serif" font-size="13">fake settings</text>

  <rect x="494" y="566" width="144" height="36" rx="18" fill="url(#accent)"/>
  <text x="522" y="589" fill="#ffffff" font-family="Inter, ui-sans-serif, system-ui, sans-serif" font-size="14" font-weight="800">Review diff</text>
  <rect x="656" y="566" width="172" height="36" rx="18" fill="#1d2025" stroke="#40464e"/>
  <text x="684" y="589" fill="#f2f4f8" font-family="Inter, ui-sans-serif, system-ui, sans-serif" font-size="14" font-weight="800">Edit settings</text>
  <rect x="846" y="566" width="152" height="36" rx="18" fill="#1d2025" stroke="#40464e"/>
  <text x="874" y="589" fill="#f2f4f8" font-family="Inter, ui-sans-serif, system-ui, sans-serif" font-size="14" font-weight="800">Reset data</text>
  <rect x="1016" y="566" width="126" height="36" rx="18" fill="#26181d" stroke="#6f3444"/>
  <text x="1044" y="589" fill="#ffb4c3" font-family="Inter, ui-sans-serif, system-ui, sans-serif" font-size="14" font-weight="800">Disable</text>
</svg>
