<svg xmlns="http://www.w3.org/2000/svg" width="1280" height="720" viewBox="0 0 1280 720" role="img" aria-labelledby="title desc">
  <title id="title">Metidos diff review demo screenshot</title>
  <desc id="desc">Generated feature screenshot showing a fake diff review with demo file names, staged and unstaged changes, and no private paths, usernames, hostnames, tokens, or real repository data.</desc>
  <defs>
    <linearGradient id="bg" x1="0" y1="0" x2="1" y2="1">
      <stop offset="0" stop-color="#0a0b0c"/>
      <stop offset="1" stop-color="#18231e"/>
    </linearGradient>
    <linearGradient id="accent" x1="0" y1="0" x2="1" y2="0">
      <stop offset="0" stop-color="#7e57ff"/>
      <stop offset="1" stop-color="#27c93f"/>
    </linearGradient>
  </defs>
  <rect width="1280" height="720" fill="url(#bg)"/>
  <path d="M0 48h1280M0 96h1280M0 144h1280M0 192h1280M0 240h1280M0 288h1280M0 336h1280M0 384h1280M0 432h1280M0 480h1280M0 528h1280M0 576h1280M0 624h1280M0 672h1280M48 0v720M96 0v720M144 0v720M192 0v720M240 0v720M288 0v720M336 0v720M384 0v720M432 0v720M480 0v720M528 0v720M576 0v720M624 0v720M672 0v720M720 0v720M768 0v720M816 0v720M864 0v720M912 0v720M960 0v720M1008 0v720M1056 0v720M1104 0v720M1152 0v720M1200 0v720M1248 0v720" stroke="#243029" stroke-width="1" opacity="0.48"/>

  <rect x="72" y="60" width="1136" height="600" rx="28" fill="#121417" stroke="#40464e" stroke-width="2"/>
  <rect x="72" y="60" width="1136" height="72" rx="28" fill="#1d2025"/>
  <rect x="72" y="104" width="1136" height="28" fill="#1d2025"/>
  <circle cx="110" cy="96" r="9" fill="#ff5f57"/>
  <circle cx="142" cy="96" r="9" fill="#ffbd2e"/>
  <circle cx="174" cy="96" r="9" fill="#27c93f"/>
  <text x="218" y="104" fill="#f2f4f8" font-family="Inter, ui-sans-serif, system-ui, sans-serif" font-size="22" font-weight="800">Metidos · Diff Review</text>
  <text x="930" y="104" fill="#a8afb9" font-family="Inter, ui-sans-serif, system-ui, sans-serif" font-size="15">Generated demo data only</text>

  <rect x="104" y="164" width="304" height="464" rx="18" fill="#0d0f12" stroke="#343a42"/>
  <text x="132" y="204" fill="#f2f4f8" font-family="Inter, ui-sans-serif, system-ui, sans-serif" font-size="18" font-weight="800">Changed files</text>
  <text x="132" y="229" fill="#a8afb9" font-family="Inter, ui-sans-serif, system-ui, sans-serif" font-size="13">Project: demo-launch-site</text>
  <rect x="132" y="258" width="248" height="66" rx="14" fill="#172338" stroke="#49c2ff"/>
  <text x="154" y="286" fill="#ffffff" font-family="Inter, ui-sans-serif, system-ui, sans-serif" font-size="15" font-weight="800">docs/public-readiness.md</text>
  <text x="154" y="308" fill="#a8afb9" font-family="Inter, ui-sans-serif, system-ui, sans-serif" font-size="12">+18 -4 · selected</text>
  <rect x="132" y="342" width="248" height="60" rx="14" fill="#15181d" stroke="#303740"/>
  <text x="154" y="369" fill="#f2f4f8" font-family="Inter, ui-sans-serif, system-ui, sans-serif" font-size="14" font-weight="700">src/demo/widget.ts</text>
  <text x="154" y="390" fill="#a8afb9" font-family="Inter, ui-sans-serif, system-ui, sans-serif" font-size="12">+7 -2 · fake code</text>
  <rect x="132" y="420" width="248" height="60" rx="14" fill="#15181d" stroke="#303740"/>
  <text x="154" y="447" fill="#f2f4f8" font-family="Inter, ui-sans-serif, system-ui, sans-serif" font-size="14" font-weight="700">package-demo.json</text>
  <text x="154" y="468" fill="#a8afb9" font-family="Inter, ui-sans-serif, system-ui, sans-serif" font-size="12">metadata only · generated</text>
  <rect x="132" y="526" width="112" height="36" rx="18" fill="#13291d" stroke="#27c93f"/>
  <text x="158" y="549" fill="#8df6a5" font-family="Inter, ui-sans-serif, system-ui, sans-serif" font-size="13" font-weight="800">Reviewed</text>
  <rect x="256" y="526" width="124" height="36" rx="18" fill="#271b1b" stroke="#ff8b8b"/>
  <text x="286" y="549" fill="#ffb0b0" font-family="Inter, ui-sans-serif, system-ui, sans-serif" font-size="13" font-weight="800">Not kept</text>

  <rect x="440" y="164" width="732" height="464" rx="18" fill="#0d0f12" stroke="#343a42"/>
  <text x="472" y="205" fill="#f2f4f8" font-family="Inter, ui-sans-serif, system-ui, sans-serif" font-size="25" font-weight="800">docs/public-readiness.md</text>
  <text x="472" y="234" fill="#a8afb9" font-family="Inter, ui-sans-serif, system-ui, sans-serif" font-size="15">Fake branch: demo/readiness-notes · Safe Mode diff</text>
  <rect x="958" y="190" width="142" height="34" rx="17" fill="url(#accent)"/>
  <text x="984" y="212" fill="#ffffff" font-family="Inter, ui-sans-serif, system-ui, sans-serif" font-size="13" font-weight="800">Open review</text>

  <rect x="472" y="270" width="652" height="304" rx="14" fill="#111418" stroke="#303740"/>
  <rect x="472" y="270" width="652" height="36" rx="14" fill="#1d2025"/>
  <rect x="472" y="292" width="652" height="14" fill="#1d2025"/>
  <text x="494" y="294" fill="#c9d0da" font-family="ui-monospace, SFMono-Regular, Menlo, monospace" font-size="13">@@ public demo checklist @@</text>

  <rect x="494" y="330" width="608" height="30" rx="6" fill="#102418"/>
  <text x="514" y="350" fill="#8df6a5" font-family="ui-monospace, SFMono-Regular, Menlo, monospace" font-size="14">+ Use generated screenshots with fake Project and Worktree names.</text>
  <rect x="494" y="368" width="608" height="30" rx="6" fill="#102418"/>
  <text x="514" y="388" fill="#8df6a5" font-family="ui-monospace, SFMono-Regular, Menlo, monospace" font-size="14">+ Verify no tokens, private paths, usernames, or real branches appear.</text>
  <rect x="494" y="406" width="608" height="30" rx="6" fill="#2a1515"/>
  <text x="514" y="426" fill="#ffb0b0" font-family="ui-monospace, SFMono-Regular, Menlo, monospace" font-size="14">- Capture a local repository screenshot for the README.</text>
  <rect x="494" y="444" width="608" height="30" rx="6" fill="#102418"/>
  <text x="514" y="464" fill="#8df6a5" font-family="ui-monospace, SFMono-Regular, Menlo, monospace" font-size="14">+ Keep public docs limited to repo-owned generated assets.</text>
  <rect x="494" y="492" width="288" height="34" rx="17" fill="#172338" stroke="#314866"/>
  <text x="520" y="514" fill="#9ed8ff" font-family="Inter, ui-sans-serif, system-ui, sans-serif" font-size="13" font-weight="800">Inline comment: looks safe</text>
  <rect x="794" y="492" width="144" height="34" rx="17" fill="#13291d" stroke="#27c93f"/>
  <text x="824" y="514" fill="#8df6a5" font-family="Inter, ui-sans-serif, system-ui, sans-serif" font-size="13" font-weight="800">Accept hunk</text>
  <rect x="950" y="492" width="152" height="34" rx="17" fill="#271b1b" stroke="#ff8b8b"/>
  <text x="979" y="514" fill="#ffb0b0" font-family="Inter, ui-sans-serif, system-ui, sans-serif" font-size="13" font-weight="800">Discard hunk</text>

  <rect x="472" y="590" width="430" height="20" rx="10" fill="#1d2025"/>
  <rect x="472" y="590" width="300" height="20" rx="10" fill="url(#accent)"/>
  <text x="924" y="606" fill="#a8afb9" font-family="Inter, ui-sans-serif, system-ui, sans-serif" font-size="13">3 files · +25 -6 · demo data only</text>
</svg>
