<svg xmlns="http://www.w3.org/2000/svg" width="1280" height="720" viewBox="0 0 1280 720" role="img" aria-labelledby="title desc">
  <title id="title">Metidos provider settings demo screenshot</title>
  <desc id="desc">Generated feature screenshot showing fake provider setup data, local and plugin-backed provider states, credential safety messaging, and test controls with no private paths, usernames, hostnames, tokens, or real repository data.</desc>
  <defs>
    <linearGradient id="bg" x1="0" y1="0" x2="1" y2="1">
      <stop offset="0" stop-color="#0a0b0c"/>
      <stop offset="1" stop-color="#172537"/>
    </linearGradient>
    <linearGradient id="accent" x1="0" y1="0" x2="1" y2="0">
      <stop offset="0" stop-color="#49c2ff"/>
      <stop offset="1" stop-color="#7e57ff"/>
    </linearGradient>
  </defs>
  <rect width="1280" height="720" fill="url(#bg)"/>
  <path d="M0 48h1280M0 96h1280M0 144h1280M0 192h1280M0 240h1280M0 288h1280M0 336h1280M0 384h1280M0 432h1280M0 480h1280M0 528h1280M0 576h1280M0 624h1280M0 672h1280M48 0v720M96 0v720M144 0v720M192 0v720M240 0v720M288 0v720M336 0v720M384 0v720M432 0v720M480 0v720M528 0v720M576 0v720M624 0v720M672 0v720M720 0v720M768 0v720M816 0v720M864 0v720M912 0v720M960 0v720M1008 0v720M1056 0v720M1104 0v720M1152 0v720M1200 0v720M1248 0v720" stroke="#26303a" stroke-width="1" opacity="0.45"/>
  <rect x="72" y="60" width="1136" height="600" rx="28" fill="#121417" stroke="#40464e" stroke-width="2"/>
  <rect x="72" y="60" width="1136" height="72" rx="28" fill="#1d2025"/>
  <rect x="72" y="104" width="1136" height="28" fill="#1d2025"/>
  <circle cx="110" cy="96" r="9" fill="#ff5f57"/>
  <circle cx="142" cy="96" r="9" fill="#ffbd2e"/>
  <circle cx="174" cy="96" r="9" fill="#27c93f"/>
  <text x="218" y="104" fill="#f2f4f8" font-family="Inter, ui-sans-serif, system-ui, sans-serif" font-size="22" font-weight="800">Metidos · Provider Settings</text>
  <text x="900" y="104" fill="#a8afb9" font-family="Inter, ui-sans-serif, system-ui, sans-serif" font-size="15">Generated demo data only</text>

  <rect x="104" y="164" width="330" height="464" rx="18" fill="#0d0f12" stroke="#343a42"/>
  <text x="132" y="204" fill="#f2f4f8" font-family="Inter, ui-sans-serif, system-ui, sans-serif" font-size="18" font-weight="800">Providers</text>
  <text x="132" y="228" fill="#a8afb9" font-family="Inter, ui-sans-serif, system-ui, sans-serif" font-size="13">Connect model services without exposing secrets.</text>

  <rect x="132" y="252" width="274" height="94" rx="14" fill="#172338" stroke="#49c2ff"/>
  <text x="154" y="282" fill="#ffffff" font-family="Inter, ui-sans-serif, system-ui, sans-serif" font-size="16" font-weight="800">demo-local-llm</text>
  <text x="154" y="306" fill="#a8afb9" font-family="Inter, ui-sans-serif, system-ui, sans-serif" font-size="13">Built-in · local endpoint</text>
  <rect x="154" y="322" width="86" height="18" rx="9" fill="#13291d"/>
  <text x="174" y="335" fill="#8df6a5" font-family="Inter, ui-sans-serif, system-ui, sans-serif" font-size="10" font-weight="800">ready</text>
  <rect x="252" y="322" width="104" height="18" rx="9" fill="#101923"/>
  <text x="270" y="335" fill="#9ed8ff" font-family="Inter, ui-sans-serif, system-ui, sans-serif" font-size="10" font-weight="800">no API key</text>

  <rect x="132" y="368" width="274" height="88" rx="14" fill="#15181d" stroke="#303740"/>
  <text x="154" y="398" fill="#f2f4f8" font-family="Inter, ui-sans-serif, system-ui, sans-serif" font-size="15" font-weight="700">demo-cloud-models</text>
  <text x="154" y="422" fill="#a8afb9" font-family="Inter, ui-sans-serif, system-ui, sans-serif" font-size="13">Plugin-backed provider</text>
  <rect x="154" y="438" width="104" height="18" rx="9" fill="#26220f"/>
  <text x="172" y="451" fill="#ffd97a" font-family="Inter, ui-sans-serif, system-ui, sans-serif" font-size="10" font-weight="800">needs key</text>

  <rect x="132" y="478" width="274" height="88" rx="14" fill="#15181d" stroke="#303740"/>
  <text x="154" y="508" fill="#f2f4f8" font-family="Inter, ui-sans-serif, system-ui, sans-serif" font-size="15" font-weight="700">demo-fake-provider</text>
  <text x="154" y="532" fill="#a8afb9" font-family="Inter, ui-sans-serif, system-ui, sans-serif" font-size="13">First-run smoke fixture</text>
  <rect x="154" y="548" width="92" height="18" rx="9" fill="#1b2340"/>
  <text x="172" y="561" fill="#b8c7ff" font-family="Inter, ui-sans-serif, system-ui, sans-serif" font-size="10" font-weight="800">demo only</text>

  <rect x="462" y="164" width="710" height="464" rx="18" fill="#0d0f12" stroke="#343a42"/>
  <text x="494" y="205" fill="#f2f4f8" font-family="Inter, ui-sans-serif, system-ui, sans-serif" font-size="26" font-weight="800">demo-local-llm</text>
  <text x="494" y="234" fill="#a8afb9" font-family="Inter, ui-sans-serif, system-ui, sans-serif" font-size="15">Provider type: built-in · Scope: selected Threads and Cron Jobs</text>
  <rect x="1010" y="190" width="116" height="34" rx="17" fill="#13291d" stroke="#27c93f"/>
  <text x="1034" y="212" fill="#8df6a5" font-family="Inter, ui-sans-serif, system-ui, sans-serif" font-size="13" font-weight="800">Connected</text>

  <text x="494" y="284" fill="#f2f4f8" font-family="Inter, ui-sans-serif, system-ui, sans-serif" font-size="18" font-weight="800">Connection settings</text>
  <rect x="494" y="308" width="350" height="54" rx="14" fill="#15181d" stroke="#303740"/>
  <text x="520" y="330" fill="#a8afb9" font-family="Inter, ui-sans-serif, system-ui, sans-serif" font-size="12" font-weight="700">Endpoint</text>
  <text x="520" y="348" fill="#c9d0da" font-family="Fira Code, ui-monospace, monospace" font-size="13">http://127.0.0.1:0000/demo</text>
  <rect x="862" y="308" width="266" height="54" rx="14" fill="#15181d" stroke="#303740"/>
  <text x="888" y="330" fill="#a8afb9" font-family="Inter, ui-sans-serif, system-ui, sans-serif" font-size="12" font-weight="700">Credential</text>
  <text x="888" y="348" fill="#c9d0da" font-family="Fira Code, ui-monospace, monospace" font-size="13">not required</text>

  <text x="494" y="405" fill="#f2f4f8" font-family="Inter, ui-sans-serif, system-ui, sans-serif" font-size="18" font-weight="800">Available models</text>
  <rect x="494" y="429" width="310" height="44" rx="14" fill="#15181d" stroke="#303740"/>
  <text x="520" y="457" fill="#c9d0da" font-family="Fira Code, ui-monospace, monospace" font-size="13">demo-fast-safe</text>
  <rect x="822" y="429" width="306" height="44" rx="14" fill="#15181d" stroke="#303740"/>
  <text x="848" y="457" fill="#c9d0da" font-family="Fira Code, ui-monospace, monospace" font-size="13">demo-code-review</text>

  <rect x="494" y="508" width="380" height="72" rx="16" fill="#101923" stroke="#49c2ff"/>
  <text x="520" y="536" fill="#f2f4f8" font-family="Inter, ui-sans-serif, system-ui, sans-serif" font-size="15" font-weight="800">Secret safety</text>
  <text x="520" y="560" fill="#a8afb9" font-family="Inter, ui-sans-serif, system-ui, sans-serif" font-size="13">Keys are stored by the backend and redacted from logs.</text>
  <rect x="908" y="516" width="128" height="40" rx="20" fill="url(#accent)"/>
  <text x="936" y="541" fill="#071016" font-family="Inter, ui-sans-serif, system-ui, sans-serif" font-size="14" font-weight="900">Test setup</text>
  <rect x="1048" y="516" width="80" height="40" rx="20" fill="#15181d" stroke="#303740"/>
  <text x="1070" y="541" fill="#c9d0da" font-family="Inter, ui-sans-serif, system-ui, sans-serif" font-size="14" font-weight="800">Save</text>
</svg>
