<svg xmlns="http://www.w3.org/2000/svg" width="1280" height="720" viewBox="0 0 1280 720" role="img" aria-labelledby="title desc">
  <title id="title">Metidos project and worktree demo screenshot</title>
  <desc id="desc">Generated feature screenshot showing a fake project list, fake worktrees, and safe status details with no private paths or real repository data.</desc>
  <defs>
    <linearGradient id="bg" x1="0" y1="0" x2="1" y2="1">
      <stop offset="0" stop-color="#0a0b0c"/>
      <stop offset="1" stop-color="#182033"/>
    </linearGradient>
    <linearGradient id="accent" x1="0" y1="0" x2="1" y2="0">
      <stop offset="0" stop-color="#7e57ff"/>
      <stop offset="1" stop-color="#49c2ff"/>
    </linearGradient>
  </defs>
  <rect width="1280" height="720" fill="url(#bg)"/>
  <path d="M0 48h1280M0 96h1280M0 144h1280M0 192h1280M0 240h1280M0 288h1280M0 336h1280M0 384h1280M0 432h1280M0 480h1280M0 528h1280M0 576h1280M0 624h1280M0 672h1280M48 0v720M96 0v720M144 0v720M192 0v720M240 0v720M288 0v720M336 0v720M384 0v720M432 0v720M480 0v720M528 0v720M576 0v720M624 0v720M672 0v720M720 0v720M768 0v720M816 0v720M864 0v720M912 0v720M960 0v720M1008 0v720M1056 0v720M1104 0v720M1152 0v720M1200 0v720M1248 0v720" stroke="#242a34" stroke-width="1" opacity="0.55"/>
  <rect x="72" y="60" width="1136" height="600" rx="28" fill="#121417" stroke="#40464e" stroke-width="2"/>
  <rect x="72" y="60" width="1136" height="72" rx="28" fill="#1d2025"/>
  <rect x="72" y="104" width="1136" height="28" fill="#1d2025"/>
  <circle cx="110" cy="96" r="9" fill="#ff5f57"/>
  <circle cx="142" cy="96" r="9" fill="#ffbd2e"/>
  <circle cx="174" cy="96" r="9" fill="#27c93f"/>
  <text x="218" y="104" fill="#f2f4f8" font-family="Inter, ui-sans-serif, system-ui, sans-serif" font-size="22" font-weight="800">Metidos · Projects and Worktrees</text>
  <text x="890" y="104" fill="#a8afb9" font-family="Inter, ui-sans-serif, system-ui, sans-serif" font-size="15">Generated demo data only</text>

  <rect x="104" y="164" width="300" height="464" rx="18" fill="#0d0f12" stroke="#343a42"/>
  <text x="132" y="204" fill="#f2f4f8" font-family="Inter, ui-sans-serif, system-ui, sans-serif" font-size="18" font-weight="800">Projects</text>
  <rect x="132" y="232" width="244" height="78" rx="14" fill="#1b2340" stroke="#7e57ff"/>
  <text x="154" y="262" fill="#ffffff" font-family="Inter, ui-sans-serif, system-ui, sans-serif" font-size="17" font-weight="800">demo-launch-site</text>
  <text x="154" y="286" fill="#a8afb9" font-family="Inter, ui-sans-serif, system-ui, sans-serif" font-size="13">/demo/workspaces/launch-site</text>
  <rect x="132" y="328" width="244" height="68" rx="14" fill="#15181d" stroke="#303740"/>
  <text x="154" y="356" fill="#f2f4f8" font-family="Inter, ui-sans-serif, system-ui, sans-serif" font-size="16" font-weight="700">sample-api</text>
  <text x="154" y="380" fill="#a8afb9" font-family="Inter, ui-sans-serif, system-ui, sans-serif" font-size="13">/demo/workspaces/sample-api</text>
  <rect x="132" y="414" width="244" height="68" rx="14" fill="#15181d" stroke="#303740"/>
  <text x="154" y="442" fill="#f2f4f8" font-family="Inter, ui-sans-serif, system-ui, sans-serif" font-size="16" font-weight="700">tutorial-plugin-lab</text>
  <text x="154" y="466" fill="#a8afb9" font-family="Inter, ui-sans-serif, system-ui, sans-serif" font-size="13">/demo/workspaces/plugin-lab</text>
  <rect x="132" y="536" width="172" height="36" rx="18" fill="url(#accent)"/>
  <text x="154" y="559" fill="#ffffff" font-family="Inter, ui-sans-serif, system-ui, sans-serif" font-size="14" font-weight="800">Add demo project</text>

  <rect x="436" y="164" width="736" height="464" rx="18" fill="#0d0f12" stroke="#343a42"/>
  <text x="468" y="206" fill="#f2f4f8" font-family="Inter, ui-sans-serif, system-ui, sans-serif" font-size="26" font-weight="800">demo-launch-site</text>
  <text x="468" y="234" fill="#a8afb9" font-family="Inter, ui-sans-serif, system-ui, sans-serif" font-size="15">Selected fake Project with safe, non-local paths and generated branch names.</text>
  <rect x="940" y="190" width="134" height="34" rx="17" fill="#13291d" stroke="#27c93f"/>
  <text x="966" y="212" fill="#8df6a5" font-family="Inter, ui-sans-serif, system-ui, sans-serif" font-size="13" font-weight="800">Clean setup</text>

  <text x="468" y="294" fill="#f2f4f8" font-family="Inter, ui-sans-serif, system-ui, sans-serif" font-size="18" font-weight="800">Worktrees</text>
  <rect x="468" y="322" width="636" height="76" rx="14" fill="#15181d" stroke="#49c2ff"/>
  <rect x="490" y="344" width="76" height="30" rx="15" fill="#17324a"/>
  <text x="514" y="364" fill="#7bdcff" font-family="Inter, ui-sans-serif, system-ui, sans-serif" font-size="13" font-weight="800">main</text>
  <text x="590" y="354" fill="#f2f4f8" font-family="Inter, ui-sans-serif, system-ui, sans-serif" font-size="16" font-weight="800">Primary Worktree</text>
  <text x="590" y="378" fill="#a8afb9" font-family="Inter, ui-sans-serif, system-ui, sans-serif" font-size="13">/demo/workspaces/launch-site · no uncommitted changes</text>
  <rect x="468" y="420" width="636" height="76" rx="14" fill="#15181d" stroke="#303740"/>
  <rect x="490" y="442" width="152" height="30" rx="15" fill="#241c3d"/>
  <text x="514" y="462" fill="#c7b7ff" font-family="Inter, ui-sans-serif, system-ui, sans-serif" font-size="13" font-weight="800">feature/onboarding</text>
  <text x="666" y="454" fill="#f2f4f8" font-family="Inter, ui-sans-serif, system-ui, sans-serif" font-size="16" font-weight="800">Tutorial Worktree</text>
  <text x="666" y="478" fill="#a8afb9" font-family="Inter, ui-sans-serif, system-ui, sans-serif" font-size="13">/demo/workspaces/launch-site-onboarding · 3 generated changes</text>
  <rect x="468" y="518" width="636" height="52" rx="14" fill="#101820" stroke="#303740"/>
  <text x="492" y="551" fill="#a8afb9" font-family="Inter, ui-sans-serif, system-ui, sans-serif" font-size="14">Agent Threads, Diffs, and Cron Jobs stay scoped to the selected Worktree.</text>
</svg>
